# Blender 4.3.2
# www.blender.org
mtllib finger.mtl
o node0_Part__Feature.007
v 0.002999 0.010897 0.044645
v 0.000360 0.010900 0.047968
v 0.002339 0.010885 0.046955
v 0.002346 0.010887 0.043179
v 0.001026 0.010895 0.042150
v 0.002000 0.010897 0.044086
v 0.000827 0.010891 0.047019
v 0.002051 0.010870 0.045824
v 0.000985 0.010888 0.043066
v -0.001819 0.009438 0.043879
v -0.000011 0.009430 0.047117
v -0.000698 0.009432 0.043016
v -0.001465 0.009429 0.046552
v -0.002086 0.009431 0.045269
v -0.000156 0.009388 0.043234
v 0.001298 0.009391 0.043788
v 0.000156 0.009388 0.046766
v 0.001741 0.009389 0.045586
v -0.002887 0.009435 0.043995
v -0.001785 0.009434 0.042496
v 0.000521 0.009434 0.048030
v -0.001792 0.009434 0.047551
v 0.000015 0.009438 0.041942
v -0.002975 0.009437 0.045703
v -0.008931 0.009314 0.036090
v 0.008931 0.009314 0.036090
v -0.000860 0.001913 0.043565
v -0.001740 0.009389 0.044414
v -0.001526 0.001913 0.045918
v -0.001297 0.009391 0.046212
v -0.000970 0.010885 0.042168
v 0.004843 -0.000017 0.053717
v 0.008757 -0.000030 0.047272
v 0.008759 -0.000029 0.042728
v -0.002268 -0.000036 0.053746
v -0.008709 -0.000010 0.049939
v -0.008758 -0.000029 0.047272
v -0.002274 -0.000037 0.036250
v -0.002244 -0.000075 0.042756
v -0.008759 -0.000030 0.042724
v 0.002263 -0.000084 0.047263
v 0.002269 -0.000036 0.053746
v -0.000000 0.001559 0.053804
v -0.000000 0.001489 0.045000
v -0.000000 0.001561 0.036196
v 0.002270 -0.000034 0.036249
v 0.002248 -0.000076 0.042752
v -0.002262 -0.000084 0.047263
v -0.005692 0.000011 0.053604
v 0.006869 0.009352 0.053103
v -0.007861 0.009355 0.052191
v 0.003445 0.009387 0.047057
v 0.008786 0.009348 0.050571
v 0.003924 0.009390 0.045734
v -0.000730 0.009392 0.041080
v 0.003038 0.009434 0.044653
v 0.000734 0.009390 0.041077
v 0.002057 0.009387 0.041555
v 0.004730 0.009351 0.053900
v -0.000733 0.009390 0.048923
v -0.002056 0.009387 0.048445
v 0.007075 -0.000019 0.052769
v 0.008675 -0.000007 0.050319
v 0.007493 0.009395 0.044251
v 0.007331 0.001442 0.044080
v 0.004115 0.001434 0.044041
v 0.000914 0.001440 0.040925
v 0.002675 0.001428 0.041713
v -0.000916 0.001442 0.037673
v -0.004073 0.001442 0.044090
v -0.003945 0.009400 0.044254
v -0.002707 0.009384 0.041939
v -0.003045 0.001420 0.041957
v -0.007492 0.009394 0.037502
v -0.000909 0.001442 0.040927
v -0.004972 0.009393 0.052438
v -0.007141 0.001431 0.050442
v -0.007258 0.009388 0.050689
v -0.007492 0.009395 0.045749
v -0.004115 0.001433 0.045959
v -0.000913 0.001440 0.049075
v -0.002675 0.001427 0.048287
v -0.000916 0.001443 0.052328
v -0.005090 0.001432 0.052228
v 0.007365 0.009394 0.050327
v 0.004925 0.001437 0.052263
v 0.005344 0.009386 0.052356
v 0.000916 0.001444 0.052327
v 0.000750 0.009395 0.052492
v 0.000959 0.001433 0.049115
v 0.004076 0.001440 0.045913
v 0.003287 0.001427 0.047676
v 0.007310 0.001436 0.049581
v 0.006608 0.001413 0.051169
v -0.001967 0.010890 0.044077
v -0.002455 0.010896 0.043269
v -0.000723 0.010895 0.042878
v 0.002155 0.009418 0.044564
v 0.000722 0.009434 0.042990
v 0.001448 0.009429 0.046568
v 0.000861 0.001913 0.046435
v 0.001526 0.001912 0.044082
v -0.007818 -0.000040 0.051918
v -0.008772 0.000028 0.036264
v -0.008893 0.009342 0.049900
v 0.008763 0.000011 0.036266
v -0.005340 0.009355 0.053819
v -0.007332 0.001443 0.044080
v -0.007497 0.009395 0.044247
v -0.007333 0.001443 0.037672
v -0.000756 0.009394 0.037502
v 0.002546 0.009437 0.046798
v 0.002078 0.009434 0.042675
v 0.007333 0.001442 0.037673
v 0.007498 0.009394 0.037507
v 0.000916 0.001442 0.037673
v 0.003923 0.009390 0.044267
v 0.000754 0.009395 0.037503
v 0.003376 0.009391 0.042815
v -0.007332 0.001444 0.045920
v -0.003923 0.009390 0.045733
v -0.000754 0.009395 0.052497
v -0.003375 0.009391 0.047185
v 0.007332 0.001443 0.045920
v 0.000734 0.009390 0.048923
v 0.007497 0.009395 0.045754
v 0.002186 0.009391 0.048375
v -0.002153 0.010887 0.045420
v -0.001070 0.010884 0.046981
v -0.003009 0.010894 0.045279
v -0.001871 0.010907 0.047411
v -0.008804 0.001559 0.045000
v 0.008809 0.001565 0.045000
vn 0.9590 0.0821 0.2711
vn 0.9708 -0.0203 -0.2392
vn 0.3562 0.0258 -0.9341
vn 0.3286 0.0331 -0.9439
vn 0.2307 0.0583 -0.9713
vn 0.2116 0.0631 -0.9753
vn 0.5973 -0.0207 0.8018
vn 0.8966 0.0864 -0.4343
vn 0.8627 0.0146 -0.5055
vn 0.8578 0.0057 -0.5140
vn 0.8203 -0.0549 -0.5692
vn -0.0520 0.0251 0.9983
vn -0.0469 0.0302 0.9984
vn 0.0187 0.0949 0.9953
vn 0.3566 0.1738 -0.9179
vn 0.1935 0.0493 -0.9799
vn -0.0020 0.0740 -0.9973
vn 0.6081 0.0848 0.7893
vn 0.6537 0.0278 0.7562
vn 0.6573 0.0231 0.7533
vn 0.6938 -0.0274 0.7197
vn 0.9793 0.0741 0.1885
vn 0.9854 0.0522 0.1622
vn 0.9849 0.0539 0.1642
vn 0.9900 0.0313 0.1372
vn -0.9448 0.0307 -0.3263
vn -0.9979 -0.0384 -0.0517
vn -0.9874 0.0493 -0.1506
vn -0.8208 0.0804 -0.5655
vn -0.2276 0.0576 0.9721
vn -0.2164 0.0402 0.9755
vn -0.2412 0.0790 0.9672
vn -0.2032 0.0191 0.9789
vn -0.5793 0.0204 -0.8149
vn -0.3144 0.0795 -0.9459
vn 0.0086 0.0113 -0.9999
vn 0.3198 0.0532 -0.9460
vn -0.8666 0.0781 0.4929
vn -0.8422 0.0061 0.5391
vn -0.8568 0.0469 0.5134
vn -0.8766 0.1155 0.4672
vn 0.0076 -0.9999 0.0065
vn 0.0050 -1.0000 0.0084
vn 0.0075 -0.9999 0.0074
vn 0.0070 -1.0000 0.0057
vn 0.0098 -0.9999 0.0047
vn 0.0083 -0.9999 0.0078
vn 0.0071 -1.0000 -0.0063
vn 0.0072 -1.0000 -0.0062
vn 0.0069 -1.0000 -0.0064
vn -0.0074 -0.9999 0.0072
vn -0.0140 -0.9999 0.0074
vn -0.0015 -0.9999 0.0142
vn -0.0029 -1.0000 0.0059
vn -0.0121 -0.9999 -0.0016
vn -0.0085 -0.9999 0.0073
vn -0.0084 -0.9999 -0.0074
vn -0.0069 -1.0000 -0.0058
vn -0.0100 -0.9999 -0.0090
vn 0.9999 -0.0114 0.0096
vn 0.9997 -0.0091 0.0225
vn 0.9996 0.0057 0.0269
vn 0.9999 -0.0074 0.0145
vn 0.9999 -0.0124 0.0039
vn 0.9998 -0.0210 -0.0036
vn 0.9998 -0.0180 0.0005
vn -0.9998 -0.0170 0.0047
vn -0.9998 -0.0032 0.0181
vn -0.9758 -0.0166 0.2182
vn -0.9770 -0.0162 0.2126
vn -0.9999 -0.0160 0.0013
vn -0.9998 -0.0200 -0.0022
vn -0.9999 -0.0171 0.0019
vn -0.5751 -0.8181 0.0065
vn -0.5752 -0.8180 0.0065
vn -0.5750 -0.8181 0.0066
vn -0.5751 -0.8180 0.0065
vn -0.5751 -0.8181 -0.0071
vn -0.5748 -0.8183 -0.0072
vn -0.5756 -0.8177 -0.0068
vn -0.5758 -0.8175 -0.0067
vn 0.5753 -0.8179 0.0065
vn 0.5752 -0.8180 0.0066
vn 0.5751 -0.8180 0.0066
vn 0.5752 -0.8180 -0.0072
vn 0.5763 -0.8172 -0.0067
vn 0.5756 -0.8177 -0.0072
vn 0.5748 -0.8182 -0.0074
vn -0.0021 -0.0170 -0.9999
vn -0.0058 -0.0212 -0.9998
vn -0.0023 -0.0188 -0.9998
vn -0.0001 -0.0191 -0.9998
vn 0.0022 -0.0171 -0.9999
vn 0.0058 -0.0211 -0.9998
vn 0.0027 -0.0190 -0.9998
vn -0.0093 -0.0137 0.9999
vn 0.1751 -0.0131 0.9845
vn -0.0164 -0.0132 0.9998
vn -0.0313 -0.0139 0.9994
vn -0.0413 0.0224 0.9989
vn 0.2033 -0.0215 0.9789
vn 0.0114 -0.0201 0.9997
vn -0.0374 0.9991 -0.0195
vn -0.0309 0.9989 -0.0358
vn -0.0250 0.9997 -0.0029
vn -0.0267 0.9986 -0.0462
vn 0.0320 0.9994 0.0092
vn 0.0299 0.9996 -0.0011
vn 0.0234 0.9997 0.0001
vn 0.0234 0.9990 0.0371
vn 0.0397 0.9988 0.0280
vn 0.0067 0.9991 0.0427
vn -0.0082 0.9997 0.0241
vn -0.0252 0.9996 0.0102
vn -0.0179 0.9997 0.0148
vn 0.0279 0.9992 -0.0282
vn 0.0269 0.9992 -0.0285
vn -0.0001 0.9993 -0.0378
vn -0.0104 0.9996 0.0247
vn -0.0269 0.9992 -0.0283
vn -0.0004 0.9994 -0.0359
vn -0.0276 0.9992 -0.0285
vn -0.0302 0.9995 -0.0005
vn -0.0319 0.9995 0.0039
vn 0.0475 0.9985 0.0278
vn 0.0151 0.9997 0.0208
vn 0.0280 0.9995 0.0115
vn 0.0087 0.9997 0.0228
vn -0.0240 0.9997 0.0003
vn -0.0002 0.9998 0.0191
vn -0.0001 0.9989 -0.0464
vn 0.0279 0.9996 0.0054
vn -0.0080 0.9996 -0.0262
vn 0.0432 0.9991 -0.0049
vn 0.0003 0.9998 0.0196
vn 0.0281 0.9996 -0.0056
vn 0.0083 0.9996 -0.0285
vn 0.0306 0.9989 -0.0359
vn 0.0230 0.9988 -0.0421
vn 0.0372 0.9990 -0.0229
vn 0.0044 0.9997 0.0250
vn -0.0054 0.9996 0.0266
vn -0.0315 0.9995 0.0096
vn -0.0262 0.9987 0.0447
vn -0.0265 0.9989 0.0385
vn -0.0370 0.9990 0.0251
vn -0.0428 0.9990 0.0125
vn 0.0054 0.9995 0.0296
vn 0.8052 -0.0080 0.5929
vn 0.5943 -0.0104 0.8042
vn 0.6415 -0.0232 0.7667
vn 0.8371 -0.0247 0.5465
vn -0.7612 -0.0102 0.6484
vn -0.7908 -0.0215 0.6117
vn -0.6062 -0.0205 0.7950
vn -0.5425 0.0011 0.8401
vn -0.9998 0.0206 -0.0006
vn -0.9998 0.0205 -0.0005
vn -0.9998 0.0204 -0.0003
vn -0.9998 0.0207 -0.0007
vn -0.0004 0.0233 -0.9997
vn 0.0076 0.0268 -0.9996
vn 0.0120 0.0287 -0.9995
vn -0.0045 0.0216 -0.9998
vn 0.4014 0.0149 -0.9158
vn 0.3397 0.0257 -0.9402
vn 0.5226 0.0319 -0.8520
vn 0.6551 0.0088 -0.7555
vn 0.8349 0.0325 -0.5494
vn 0.8623 0.0024 -0.5063
vn 0.9352 0.0326 -0.3526
vn 0.9998 0.0219 0.0023
vn 0.9998 0.0210 0.0044
vn 0.9997 0.0226 0.0010
vn 0.9998 0.0205 0.0056
vn -0.0000 0.0209 0.9998
vn -0.0003 0.0211 0.9998
vn -0.0006 0.0214 0.9998
vn -0.0000 1.0000 0.0011
vn 0.0017 1.0000 0.0027
vn 0.0065 1.0000 0.0006
vn -0.0016 1.0000 0.0016
vn -0.0029 1.0000 -0.0003
vn -0.0025 1.0000 -0.0010
vn -0.0001 0.0214 0.9998
vn -0.0000 0.0214 0.9998
vn -0.0002 0.0215 0.9998
vn -0.9998 0.0208 0.0060
vn -0.9998 0.0219 0.0035
vn -0.9997 0.0225 0.0022
vn -0.9998 0.0203 0.0073
vn -0.8967 0.0260 -0.4418
vn -0.8848 0.0340 -0.4646
vn -0.8811 0.0363 -0.4715
vn -0.9005 0.0234 -0.4342
vn -0.4285 0.0181 -0.9034
vn -0.4050 0.0248 -0.9140
vn -0.3985 0.0266 -0.9168
vn -0.4344 0.0164 -0.9006
vn 0.0022 0.0209 -0.9998
vn 0.0028 0.0207 -0.9998
vn 0.0019 0.0210 -0.9998
vn 0.0031 0.0206 -0.9998
vn 0.9998 0.0204 0.0002
vn 0.9998 0.0203 0.0004
vn 0.9998 0.0207 -0.0002
vn 0.9998 0.0200 0.0007
vn 0.0001 1.0000 -0.0001
vn -0.0029 1.0000 0.0037
vn 0.0028 1.0000 0.0026
vn 0.0039 1.0000 -0.0030
vn -0.0103 0.9999 -0.0000
vn 0.0003 0.9999 -0.0102
vn 0.6563 0.0330 -0.7537
vn 0.6180 0.0164 -0.7860
vn 0.6459 0.0284 -0.7629
vn 0.6076 0.0119 -0.7942
vn 0.9989 0.0171 -0.0440
vn 0.9988 0.0181 -0.0456
vn 0.9990 0.0162 -0.0424
vn 0.9987 0.0191 -0.0473
vn -0.0076 0.0268 0.9996
vn 0.0004 0.0233 0.9997
vn 0.0045 0.0216 0.9998
vn -0.0120 0.0287 0.9995
vn -0.4014 0.0151 0.9158
vn -0.3397 0.0257 0.9402
vn -0.5226 0.0319 0.8520
vn -0.6551 0.0088 0.7555
vn -0.8347 0.0326 0.5497
vn -0.8625 0.0022 0.5060
vn -0.9351 0.0326 0.3529
vn -0.9998 0.0210 -0.0047
vn -0.9998 0.0220 -0.0023
vn -0.9998 0.0205 -0.0059
vn -0.9997 0.0226 -0.0009
vn 0.0170 0.0225 -0.9996
vn 0.0208 0.0244 -0.9995
vn 0.0239 0.0260 -0.9994
vn 0.0140 0.0210 -0.9997
vn 0.0025 1.0000 0.0021
vn 0.0034 1.0000 0.0027
vn 0.0015 1.0000 0.0006
vn -0.0017 1.0000 -0.0016
vn -0.0013 1.0000 -0.0015
vn -0.0041 1.0000 -0.0029
vn -0.0026 1.0000 -0.0009
vn -0.7596 0.0373 -0.6494
vn -0.9220 0.0081 -0.3871
vn -0.9797 0.0254 -0.1988
vn -0.5442 0.0385 -0.8381
vn -0.6852 -0.0002 -0.7284
vn -0.0255 0.0178 -0.9995
vn -0.0205 0.0151 -0.9997
vn -0.0295 0.0201 -0.9994
vn -0.0159 0.0125 -0.9998
vn 0.9996 0.0266 0.0085
vn 0.9997 0.0228 -0.0001
vn 0.9998 0.0210 -0.0045
vn 0.9995 0.0286 0.0133
vn 0.9159 0.0150 0.4011
vn 0.9401 0.0257 0.3399
vn 0.8518 0.0319 0.5229
vn 0.7553 0.0088 0.6553
vn 0.5497 0.0326 0.8347
vn 0.5058 0.0022 0.8626
vn 0.3529 0.0325 0.9351
vn -0.0031 0.0221 0.9998
vn -0.0048 0.0214 0.9998
vn -0.0022 0.0225 0.9997
vn -0.0056 0.0210 0.9998
vn -0.9998 0.0117 -0.0136
vn -0.9994 0.0201 -0.0288
vn 0.0061 1.0000 -0.0045
vn -0.0012 1.0000 0.0018
vn 0.0013 1.0000 -0.0029
vn 0.0017 1.0000 -0.0034
vn -0.0053 1.0000 0.0078
vn -0.0031 1.0000 0.0038
vn -0.0009 1.0000 0.0019
vn 0.0022 1.0000 0.0019
vn -0.0021 1.0000 -0.0076
vn 0.0030 1.0000 0.0019
vn 0.0061 1.0000 0.0045
vn 0.0090 1.0000 -0.0024
vn -0.0034 0.9999 -0.0124
vn 0.0108 0.9999 -0.0058
vn -0.0006 1.0000 0.0019
vn -0.0081 0.9999 0.0070
vn 0.0166 0.9997 -0.0191
vn 0.0010 1.0000 -0.0007
vn 0.0095 0.9999 -0.0077
vn 0.0129 0.9997 -0.0225
vn -0.0093 0.9999 0.0059
vn 0.0010 0.9999 -0.0135
vn 0.0118 0.9999 -0.0028
vn -0.0200 0.9998 -0.0029
vn -0.0072 0.9999 -0.0114
vn 0.9632 0.0800 0.2568
vn 0.9743 0.0272 0.2234
vn 0.9685 0.0570 0.2424
vn 0.9559 0.1070 0.2737
vn 0.6837 0.0231 -0.7294
vn 0.4791 0.0492 0.8764
vn 0.5197 -0.0183 0.8542
vn 0.4978 0.0188 0.8671
vn 0.8211 0.0459 -0.5690
vn 0.4544 0.0874 0.8865
vn 0.9049 0.0034 -0.4256
vn 0.8994 0.0216 -0.4365
vn -0.7316 0.1390 0.6674
vn -0.7222 0.1207 0.6811
vn -0.7197 0.1158 0.6846
vn -0.3668 -0.0106 -0.9302
vn -0.7063 0.0911 0.7020
vn -0.5337 0.0340 -0.8450
vn -0.1097 -0.0323 0.9934
vn -0.6972 -0.0763 -0.7128
vn -0.9202 0.2168 -0.3258
vn -0.9787 0.0900 -0.1845
vn -0.9890 0.0501 -0.1390
vn -0.9951 -0.0953 0.0277
vn -0.9590 0.0821 -0.2711
vn -0.9708 -0.0202 0.2392
vn -0.3563 0.0258 0.9340
vn -0.3284 0.0332 0.9439
vn -0.2308 0.0582 0.9713
vn -0.2113 0.0631 0.9754
vn -0.5970 -0.0208 -0.8020
vn 0.1769 0.9831 0.0470
vn 0.0935 0.9926 0.0771
vn 0.0726 0.9972 -0.0200
vn -0.1695 0.9718 0.1638
vn -0.0519 0.9984 0.0218
vn -0.0367 0.9948 0.0953
vn 0.0094 0.9898 0.1424
vn 0.0454 0.9949 0.0902
vn 0.0098 0.9935 -0.1134
vn 0.1036 0.9927 -0.0614
vn 0.0670 0.9952 -0.0716
vn -0.0410 0.9973 -0.0611
vn -0.0397 0.9978 -0.0534
vn -0.0182 0.9930 -0.1166
vn -0.5419 0.8174 -0.1955
vn -0.0429 0.9990 0.0118
vn 0.0002 1.0000 -0.0001
vn 0.0005 1.0000 -0.0003
vn -0.0000 1.0000 -0.0000
vn -0.0068 -0.8178 0.5755
vn -0.0065 -0.8173 0.5761
vn -0.0080 -0.8193 0.5733
vn -0.0085 -0.8200 0.5723
vn -0.0067 -0.8183 -0.5747
vn -0.0077 -0.8197 -0.5728
vn -0.0074 -0.8193 -0.5734
vn -0.0065 -0.8180 -0.5751
vn 0.0075 -0.8183 -0.5747
vn 0.0076 -0.8185 -0.5744
vn 0.0072 -0.8179 -0.5753
vn 0.0071 -0.8178 -0.5755
vn 0.0078 -0.8183 0.5747
vn 0.0071 -0.8174 0.5761
vn 0.0072 -0.8176 0.5757
vn 0.0080 -0.8187 0.5742
s 1
usemtl Part__Feature_007
f 27//1 28//1 29//1
f 28//2 30//2 29//2
f 30//3 17//4 29//5
f 29//5 17//4 101//6
f 15//7 28//7 27//7
f 14//8 128//9 13//10
f 128//9 129//11 13//10
f 99//12 97//13 12//14
f 13//15 129//16 11//17
f 12//18 97//19 10//20
f 97//19 95//21 10//20
f 10//22 95//23 14//24
f 95//23 128//25 14//24
f 19//26 24//27 130//28
f 19//26 130//28 96//29
f 22//30 2//31 131//32
f 22//30 21//33 2//31
f 20//34 19//26 96//29
f 20//34 96//29 31//35
f 23//36 20//34 31//35
f 23//36 31//35 5//37
f 24//38 22//39 131//40
f 24//38 131//40 130//41
f 41//42 32//43 42//44
f 41//42 62//45 32//43
f 63//46 62//45 41//42
f 33//47 63//46 41//42
f 106//48 34//49 47//48
f 106//48 47//48 46//50
f 48//51 35//52 49//53
f 48//51 49//53 103//54
f 48//51 103//54 36//55
f 48//51 36//55 37//56
f 38//57 39//58 40//57
f 38//57 40//57 104//59
f 133//60 63//61 33//62
f 133//60 53//63 63//61
f 26//64 53//63 133//60
f 34//65 26//64 133//60
f 106//66 26//64 34//65
f 132//67 37//68 36//69
f 105//70 132//67 36//69
f 25//71 40//72 132//67
f 25//71 104//73 40//72
f 25//71 132//67 105//70
f 41//74 42//75 43//76
f 44//77 41//74 43//76
f 45//78 46//79 47//80
f 45//78 47//80 44//81
f 48//82 44//82 43//83
f 48//82 43//83 35//84
f 45//85 44//86 39//87
f 38//88 45//85 39//87
f 25//89 38//90 104//91
f 45//92 38//90 25//89
f 26//93 46//94 45//92
f 26//93 106//95 46//94
f 26//93 45//92 25//89
f 43//96 59//97 107//98
f 43//96 107//98 49//99
f 43//96 49//99 35//100
f 32//101 43//96 42//102
f 32//101 59//97 43//96
f 19//103 72//104 71//105
f 19//103 20//106 72//104
f 53//107 64//108 126//109
f 127//110 112//111 21//112
f 107//113 78//114 51//115
f 115//116 26//117 118//118
f 107//113 76//119 78//114
f 64//108 26//117 115//116
f 53//107 26//117 64//108
f 26//117 25//120 118//118
f 118//118 25//120 111//121
f 74//122 25//120 109//123
f 109//123 25//120 105//124
f 51//115 78//114 105//124
f 127//110 52//125 112//111
f 50//126 85//127 87//128
f 78//114 79//129 105//124
f 107//113 122//130 76//119
f 50//126 53//107 85//127
f 23//131 72//104 20//106
f 52//125 54//132 112//111
f 23//131 55//133 72//104
f 112//111 54//132 56//134
f 107//113 89//135 122//130
f 79//129 109//123 105//124
f 54//132 117//136 56//134
f 23//131 57//137 55//133
f 113//138 58//139 23//131
f 23//131 58//139 57//137
f 117//136 119//140 56//134
f 107//113 59//141 89//135
f 89//135 60//142 122//130
f 79//129 121//143 109//123
f 56//134 119//140 113//138
f 61//144 22//145 123//146
f 113//138 119//140 58//139
f 74//122 111//121 25//120
f 54//132 126//109 117//136
f 22//145 24//147 123//146
f 53//107 126//109 85//127
f 60//142 22//145 61//144
f 123//146 24//147 121//143
f 59//141 87//128 89//135
f 60//142 21//112 22//145
f 57//137 118//118 55//133
f 89//135 125//148 60//142
f 55//133 118//118 111//121
f 121//143 71//105 109//123
f 121//143 24//147 71//105
f 125//148 21//112 60//142
f 126//109 64//108 117//136
f 24//147 19//103 71//105
f 50//126 87//128 59//141
f 127//110 21//112 125//148
f 53//149 50//150 62//151
f 53//149 62//151 63//152
f 50//150 32//101 62//151
f 50//150 59//97 32//101
f 51//153 103//154 49//155
f 107//156 51//153 49//155
f 105//70 36//69 103//154
f 51//153 105//70 103//154
f 64//157 114//158 65//159
f 115//160 114//158 64//157
f 117//161 65//162 66//163
f 64//164 65//162 117//161
f 67//165 57//166 58//167
f 68//168 67//165 58//167
f 68//168 58//167 119//169
f 66//170 68//168 119//169
f 66//170 119//169 117//171
f 116//172 57//173 67//174
f 116//172 118//175 57//173
f 114//176 115//177 116//177
f 116//177 115//177 118//178
f 68//179 116//180 67//181
f 114//182 116//180 68//179
f 65//183 68//179 66//184
f 65//183 114//182 68//179
f 110//185 111//185 74//186
f 69//187 111//185 110//185
f 55//188 69//189 75//190
f 111//191 69//189 55//188
f 73//192 71//193 72//194
f 73//192 70//195 71//193
f 75//196 72//197 55//198
f 75//196 73//199 72//197
f 71//200 108//201 109//202
f 71//200 70//203 108//201
f 110//204 109//205 108//206
f 110//204 74//207 109//205
f 73//208 69//209 110//210
f 73//208 110//210 108//211
f 75//212 69//209 73//208
f 70//213 73//208 108//211
f 77//214 78//215 84//216
f 78//215 76//217 84//216
f 120//218 78//219 77//220
f 120//218 79//221 78//219
f 120//222 121//223 79//224
f 80//225 121//223 120//222
f 81//226 60//227 61//228
f 82//229 81//226 61//228
f 82//229 61//228 123//230
f 80//231 82//229 123//230
f 80//231 123//230 121//232
f 60//233 83//234 122//235
f 60//233 81//236 83//234
f 76//237 83//238 84//239
f 122//240 83//238 76//237
f 80//241 120//242 77//243
f 82//244 80//241 77//243
f 84//245 82//244 77//243
f 84//245 81//246 82//244
f 83//247 81//246 84//245
f 94//248 85//249 93//250
f 86//251 87//252 94//248
f 87//252 85//249 94//248
f 87//253 88//254 89//255
f 87//253 86//256 88//254
f 88//257 125//258 89//259
f 90//260 125//258 88//257
f 91//261 54//262 52//263
f 92//264 91//261 52//263
f 92//264 52//263 127//265
f 90//266 92//264 127//265
f 90//266 127//265 125//267
f 124//268 54//269 91//270
f 124//268 126//271 54//269
f 85//249 124//272 93//250
f 126//273 124//272 85//249
f 86//274 92//275 90//276
f 86//274 90//276 88//277
f 93//278 91//279 92//275
f 93//278 124//280 91//279
f 94//281 93//278 92//275
f 94//281 92//275 86//274
f 97//282 96//283 95//284
f 95//284 96//283 130//285
f 97//282 31//286 96//283
f 128//287 95//284 130//285
f 97//282 5//288 31//286
f 9//289 5//288 97//282
f 128//287 130//285 131//290
f 6//291 5//288 9//289
f 4//292 5//288 6//291
f 129//293 128//287 131//290
f 1//294 4//292 6//291
f 2//295 7//296 129//293
f 2//295 129//293 131//290
f 1//294 6//291 8//297
f 3//298 1//294 8//297
f 2//295 8//297 7//296
f 3//298 8//297 2//295
f 112//299 56//300 1//301
f 112//299 1//301 3//302
f 113//303 23//36 5//37
f 21//304 112//305 3//306
f 113//303 5//37 4//307
f 21//304 3//306 2//308
f 113//303 4//307 1//309
f 56//310 113//303 1//309
f 98//311 6//312 99//313
f 129//16 7//314 11//17
f 6//312 9//315 99//313
f 11//17 7//314 100//316
f 9//317 97//13 99//12
f 7//314 8//318 100//316
f 100//319 8//320 98//321
f 8//320 6//322 98//321
f 101//323 18//323 102//323
f 18//324 16//324 102//324
f 16//325 15//326 102//327
f 102//327 15//326 27//328
f 17//329 18//329 101//329
f 28//330 10//331 14//332
f 16//333 98//334 99//335
f 15//336 99//335 12//337
f 11//338 30//339 13//340
f 100//341 18//342 17//343
f 30//339 28//330 13//340
f 13//340 28//330 14//332
f 11//338 17//343 30//339
f 28//330 12//337 10//331
f 28//330 15//336 12//337
f 100//344 98//344 18//344
f 11//338 100//341 17//343
f 18//345 98//334 16//333
f 16//333 99//335 15//336
f 101//346 102//347 27//346
f 101//346 27//346 29//348
f 39//349 44//350 132//351
f 39//349 132//351 40//352
f 48//353 37//354 132//355
f 44//356 48//353 132//355
f 133//357 33//358 41//359
f 133//357 41//359 44//360
f 133//361 44//362 47//363
f 34//364 133//361 47//363
o node1_Part__Feature001.006
v -0.000900 0.009423 0.048367
v -0.003461 0.009426 0.045455
v 0.003367 0.009420 0.045796
v 0.002354 0.009420 0.047536
v 0.001210 0.009422 0.048205
v -0.002569 0.009414 0.047296
v -0.010405 0.018387 0.003964
v 0.010303 0.019675 0.004000
v -0.010307 0.019704 0.004000
v -0.010328 0.017411 0.006312
v 0.010338 0.017411 0.006348
v -0.010350 0.002563 0.001800
v -0.010464 0.008072 0.001741
v -0.010366 0.002524 0.000133
v -0.010338 0.008029 0.003838
v -0.010498 0.010668 0.003808
v -0.010375 0.011577 0.017773
v -0.010379 0.012792 0.018852
v -0.010402 0.017414 0.004770
v -0.010333 0.016215 0.018827
v -0.010501 0.017036 0.017714
v -0.010464 0.020754 0.001741
v -0.010256 0.020798 0.003920
v -0.010391 0.026304 0.000164
v -0.010350 0.026263 0.001800
v -0.005033 0.005965 0.003875
v 0.006784 0.007870 0.003922
v 0.010339 0.008029 0.003838
v -0.006688 0.007826 0.003913
v -0.004875 0.002588 0.003875
v 0.004875 0.002538 0.003825
v 0.004882 0.006314 0.003998
v 0.010350 0.002563 0.001800
v 0.004862 0.002482 0.001761
v 0.010378 0.002535 0.000153
v -0.004861 0.002482 0.001761
v 0.010389 0.026280 0.000133
v 0.004901 0.026345 0.001761
v 0.010350 0.026263 0.001800
v -0.004838 0.026298 0.003838
v 0.004839 0.026252 0.003885
v -0.004913 0.026315 0.001779
v -0.004740 0.023087 0.003992
v 0.004737 0.023113 0.003990
v 0.010398 0.011407 0.004752
v -0.010403 0.011445 0.004799
v 0.010383 0.012612 0.018800
v 0.010269 0.020763 0.003932
v 0.010459 0.020803 0.001745
v 0.010465 0.008072 0.001741
v 0.010498 0.010654 0.003799
v 0.010409 0.011617 0.017719
v 0.010499 0.017232 0.004730
v 0.010328 0.016056 0.018873
v 0.010402 0.018212 0.003998
v 0.010502 0.017036 0.017714
v 0.007073 0.021006 0.001900
v 0.005207 0.022541 0.001900
v 0.005031 0.023349 0.003701
v 0.005556 0.022134 0.003700
v 0.006974 0.021021 0.003699
v 0.005151 0.006139 0.001900
v 0.006993 0.007813 0.001900
v 0.005121 0.005962 0.003694
v -0.005206 0.022541 0.001900
v -0.007105 0.020991 0.001900
v -0.006963 0.021030 0.003689
v -0.005556 0.022134 0.003700
v -0.005031 0.023340 0.003703
v -0.005051 0.005645 0.001900
v -0.005778 0.006963 0.001900
v -0.007155 0.007844 0.001900
v 0.010213 0.010281 0.004018
v -0.010210 0.010258 0.004015
v 0.010206 0.017442 0.005110
v 0.010198 0.017334 0.017770
v -0.010194 0.017350 0.017681
v -0.006566 0.020819 0.003997
v 0.006603 0.020795 0.003997
v -0.010293 0.023166 0.004009
v -0.010389 0.025220 0.019188
v 0.010400 0.025253 0.019037
v -0.008802 0.015652 0.035926
v 0.008804 0.015668 0.035909
v -0.008749 0.014412 0.036005
v 0.008747 0.014412 0.036004
v -0.005330 0.014302 0.053810
v -0.007802 0.014238 0.052291
v 0.006547 0.014291 0.053246
v 0.004800 0.014331 0.053832
v 0.008538 0.014414 0.050534
v -0.008657 0.014413 0.049832
v -0.007084 0.009504 0.052821
v -0.008779 0.009461 0.050118
v -0.005468 0.009491 0.053747
v -0.008745 0.009414 0.036004
v -0.003062 0.009426 0.043491
v 0.005491 0.009412 0.053558
v 0.007738 0.009533 0.052245
v 0.008802 0.009508 0.050203
v 0.008749 0.009414 0.036005
v -0.009015 0.008044 0.035742
v 0.009010 0.008125 0.035845
v -0.010193 0.017399 0.019251
v 0.008962 0.008021 0.035579
v 0.010188 0.017393 0.019253
v -0.010362 0.025305 0.006144
v 0.010382 0.025262 0.006119
v 0.010294 0.023166 0.004009
v -0.010479 0.017678 0.019324
v -0.009055 0.015468 0.035708
v -0.009049 0.009712 0.035735
v -0.009055 0.014105 0.035728
v 0.008973 0.014113 0.049681
v 0.009050 0.009716 0.035736
v 0.009056 0.015468 0.035708
v 0.009056 0.014109 0.035727
v 0.010480 0.017678 0.019324
v -0.008395 0.009713 0.051461
v -0.008945 0.014110 0.049960
v 0.008197 0.014115 0.051853
v 0.005532 0.009717 0.053858
v -0.001954 0.009418 0.042156
v 0.003168 0.009425 0.043772
v -0.000002 0.012805 0.044994
v 0.000144 0.009433 0.041511
v 0.001943 0.009422 0.042194
v -0.009823 0.017502 0.011108
v -0.008970 0.017535 0.009498
v -0.008382 0.020413 0.008978
v -0.006987 0.020413 0.015642
v -0.007581 0.017713 0.015459
v -0.007903 0.017713 0.008742
v -0.008937 0.020413 0.014486
v -0.006166 0.017719 0.008207
v -0.006000 0.020413 0.008208
v -0.009010 0.017713 0.014274
v -0.009712 0.017718 0.012743
v -0.009829 0.020413 0.011614
v -0.008164 0.017414 0.015489
v -0.002160 0.017714 0.011790
v -0.001917 0.017415 0.012880
v -0.009805 0.017414 0.013576
v -0.002761 0.017713 0.013936
v -0.003453 0.017413 0.015198
v -0.003756 0.017713 0.015033
v -0.005419 0.017719 0.015752
v -0.005659 0.017414 0.016112
v -0.002534 0.017414 0.009761
v -0.007442 0.017414 0.008156
v -0.004800 0.017414 0.008044
v -0.004241 0.017708 0.008647
v -0.002989 0.017713 0.009726
v -0.003062 0.020413 0.014486
v -0.003617 0.020413 0.008978
v -0.005245 0.020413 0.015716
v -0.002171 0.020413 0.011614
v 0.002472 0.017538 0.010274
v 0.003618 0.020413 0.008978
v 0.005013 0.020413 0.015642
v 0.004419 0.017713 0.015459
v 0.004097 0.017713 0.008742
v 0.003063 0.020413 0.014486
v 0.005834 0.017719 0.008207
v 0.006000 0.020413 0.008208
v 0.002990 0.017713 0.014274
v 0.002158 0.017603 0.012482
v 0.002171 0.020413 0.011614
v 0.002779 0.017415 0.014644
v 0.009840 0.017714 0.011790
v 0.009967 0.017414 0.010864
v 0.009844 0.017414 0.013442
v 0.009239 0.017713 0.013936
v 0.008363 0.017594 0.015050
v 0.006581 0.017719 0.015752
v 0.005934 0.017415 0.016176
v 0.006599 0.017413 0.007966
v 0.008496 0.017414 0.008740
v 0.004167 0.017415 0.008277
v 0.007759 0.017708 0.008647
v 0.009011 0.017713 0.009726
v 0.008938 0.020413 0.014486
v 0.008383 0.020413 0.008978
v 0.006755 0.020413 0.015716
v 0.009829 0.020413 0.011614
vn -0.4932 -0.7152 -0.4952
vn -0.0015 -1.0000 0.0022
vn -0.6824 -0.7151 -0.1514
vn -0.2137 -0.7117 -0.6692
vn 0.1728 -0.7182 -0.6741
vn 0.5239 -0.7130 -0.4661
vn 0.6898 -0.7184 -0.0900
vn -0.0001 -0.0261 0.9997
vn -0.0016 -0.0025 1.0000
vn -0.0000 -0.0273 0.9996
vn -0.0016 -0.0015 1.0000
vn -0.2990 0.9541 0.0163
vn -0.0001 0.9997 0.0240
vn -0.0188 0.9998 0.0028
vn -0.0000 0.9997 0.0250
vn -0.9997 -0.0206 0.0101
vn -0.9996 -0.0135 -0.0248
vn -0.9999 -0.0171 -0.0019
vn -0.9965 -0.0597 0.0586
vn -0.9830 -0.1258 0.1334
vn -0.9991 -0.0189 0.0368
vn -0.9990 -0.0091 0.0447
vn -0.9997 -0.0230 0.0087
vn -0.9956 -0.0383 0.0854
vn -0.9999 0.0068 0.0109
vn -0.9871 0.0144 0.1593
vn -0.9986 0.0219 0.0481
vn -0.9999 0.0137 -0.0061
vn -0.9930 0.0633 0.1000
vn -0.9998 0.0167 0.0120
vn -0.9995 0.0204 0.0256
vn 0.0168 -0.0633 0.9979
vn 0.0038 -0.0294 0.9996
vn 0.0270 -0.0781 0.9966
vn -0.0157 -0.0644 0.9978
vn -0.0059 -0.0422 0.9991
vn -0.0248 -0.0777 0.9967
vn -0.0118 -0.0183 0.9998
vn -0.0084 -0.0109 0.9999
vn -0.0005 0.0138 0.9999
vn 0.0049 -0.0458 0.9989
vn 0.0146 -0.9997 0.0172
vn 0.0012 -1.0000 -0.0085
vn 0.0121 -0.9999 0.0084
vn -0.0007 -0.9995 0.0303
vn -0.0023 -1.0000 0.0016
vn -0.0049 -0.9987 0.0500
vn -0.0146 -0.9996 0.0235
vn -0.0119 -0.9998 0.0141
vn 0.0124 0.9999 0.0014
vn 0.0027 1.0000 -0.0076
vn 0.0150 0.9998 0.0102
vn -0.0020 0.9999 0.0131
vn 0.0046 0.9990 0.0445
vn -0.0034 1.0000 0.0065
vn -0.0080 0.9998 0.0185
vn -0.0095 0.9996 0.0253
vn -0.0037 0.0449 0.9990
vn -0.0009 0.0364 0.9993
vn -0.0046 0.0478 0.9988
vn 0.0001 0.0334 0.9994
vn -0.0002 0.0001 -1.0000
vn -0.0004 0.0003 -1.0000
vn 0.0010 -0.0008 -1.0000
vn -0.0015 0.0013 -1.0000
vn 0.0020 -0.9999 0.0162
vn -0.0005 -0.9999 0.0123
vn 0.0006 -0.9999 0.0141
vn -0.0018 -0.9999 0.0102
vn -0.0022 0.0073 1.0000
vn -0.0017 0.0038 1.0000
vn 0.0019 -0.0182 0.9998
vn 0.0023 -0.0212 0.9998
vn 0.9937 0.0543 0.0980
vn 0.9995 0.0206 0.0250
vn 0.9999 0.0125 -0.0047
vn 0.9998 0.0161 0.0110
vn 0.9997 -0.0130 -0.0217
vn 0.9998 -0.0171 0.0047
vn 0.9996 -0.0207 0.0173
vn 0.9995 0.0197 0.0236
vn 0.9827 -0.1269 0.1352
vn 0.9965 -0.0595 0.0587
vn 0.9990 -0.0096 0.0445
vn 0.9934 -0.0532 0.1016
vn 0.9982 0.0018 -0.0606
vn 0.9998 -0.0171 0.0133
vn 0.9985 -0.0138 0.0533
vn 0.9873 0.0123 0.1582
vn 0.0161 0.0141 0.9998
vn 0.0252 0.0033 0.9997
vn 0.0452 -0.0092 0.9989
vn 0.0029 0.0228 0.9997
vn -0.0066 0.0360 0.9993
vn 0.9810 0.1939 0.0015
vn 0.7634 0.6459 -0.0024
vn 0.8852 0.4646 0.0220
vn 0.6276 0.7775 0.0405
vn 0.6350 0.7720 0.0285
vn 0.9974 0.0639 0.0319
vn 0.9966 0.0706 0.0422
vn 0.0657 0.9978 0.0059
vn 0.0709 0.9974 0.0146
vn 0.0596 0.9982 -0.0050
vn 0.0763 0.9968 0.0249
vn 0.0033 -0.0232 0.9997
vn -0.0065 -0.0375 0.9993
vn 0.0167 -0.0138 0.9998
vn 0.0257 -0.0026 0.9997
vn 0.0450 0.0098 0.9989
vn 0.6698 -0.7370 0.0900
vn 0.7073 -0.7062 0.0333
vn 0.7222 -0.6916 0.0088
vn 0.7559 -0.6526 -0.0518
vn 0.0643 -0.9979 0.0001
vn 0.0548 -0.9984 0.0166
vn 0.0737 -0.9972 -0.0160
vn 0.0454 -0.9984 0.0328
vn 0.9974 -0.0713 0.0096
vn 0.9971 -0.0765 -0.0002
vn 0.9973 -0.0739 0.0048
vn 0.9969 -0.0786 -0.0041
vn -0.0178 0.0122 0.9998
vn -0.0466 -0.0097 0.9989
vn -0.0260 0.0030 0.9997
vn -0.0042 0.0210 0.9998
vn 0.0036 0.0318 0.9995
vn -0.6320 0.7743 0.0333
vn -0.6258 0.7788 0.0431
vn -0.8850 0.4649 0.0237
vn -0.7632 0.6461 -0.0023
vn -0.9810 0.1941 0.0029
vn -0.0703 0.9974 -0.0143
vn -0.0714 0.9973 -0.0156
vn -0.0708 0.9974 -0.0151
vn -0.0697 0.9975 -0.0135
vn -0.9973 0.0634 0.0369
vn -0.9966 0.0690 0.0456
vn -0.0182 -0.0149 0.9997
vn 0.0065 -0.0435 0.9990
vn -0.0034 -0.0235 0.9997
vn -0.0256 -0.0017 0.9997
vn -0.0000 -0.0000 1.0000
vn -0.0473 0.0097 0.9988
vn -0.9672 -0.2500 0.0449
vn -0.9321 -0.3620 0.0095
vn -0.7351 -0.6763 0.0478
vn -0.6652 -0.7465 0.0193
vn -0.5353 -0.8366 0.1167
vn -0.9985 -0.0552 0.0036
vn -0.9982 -0.0598 -0.0036
vn -0.0596 -0.9982 -0.0026
vn -0.0637 -0.9979 -0.0094
vn -0.0682 -0.9975 -0.0169
vn -0.0556 -0.9984 0.0040
vn 0.0009 -0.5466 0.8374
vn 0.0005 -0.5508 0.8346
vn 0.0009 -0.5464 0.8375
vn 0.0005 -0.5511 0.8345
vn 0.0041 0.6375 0.7705
vn 0.0035 0.6461 0.7632
vn -0.0099 0.8164 0.5774
vn -0.0105 0.8230 0.5680
vn 0.0031 0.6564 0.7544
vn -0.0025 0.7107 0.7035
vn -0.0022 0.7076 0.7066
vn 0.0033 0.6536 0.7569
vn 0.0028 -0.7324 0.6809
vn -0.0039 -0.6640 0.7477
vn -0.0036 -0.6674 0.7447
vn 0.0032 -0.7357 0.6773
vn -0.0167 0.8150 0.5792
vn -0.3737 0.4680 0.8008
vn -0.7725 0.6222 0.1274
vn -0.5669 0.2445 0.7867
vn -0.6251 0.1532 0.7654
vn -0.6525 0.1050 0.7504
vn -0.6982 0.0129 0.7158
vn -0.9594 0.0644 0.2747
vn -0.7143 0.6997 0.0122
vn -0.7130 0.7011 0.0122
vn -0.5722 0.6163 0.5410
vn 0.7006 0.0011 0.7136
vn 0.6316 0.1467 0.7613
vn 0.6551 0.1017 0.7487
vn 0.5716 0.2474 0.7824
vn 0.7760 0.6251 0.0842
vn 0.3658 0.4646 0.8064
vn 0.2578 0.5889 0.7660
vn 0.1483 0.6914 0.7071
vn 0.0179 0.7870 0.6167
vn -0.8350 -0.3913 0.3868
vn 0.8709 0.0580 0.4880
vn -0.6093 -0.0279 0.7924
vn 0.8207 0.3922 0.4155
vn 0.7668 0.6419 0.0058
vn 0.6026 0.7976 -0.0278
vn 0.5497 0.8345 -0.0373
vn 0.7034 0.7107 0.0133
vn 0.7022 0.7118 0.0133
vn 0.6340 0.5412 0.5524
vn 0.8253 -0.3976 0.4011
vn 0.6291 -0.0265 0.7769
vn 0.7685 -0.0307 0.6391
vn 0.3893 -0.4363 0.8112
vn 0.0029 0.0097 -0.9999
vn 0.0122 0.0245 -0.9996
vn -0.0031 0.0003 -1.0000
vn 0.0206 0.0379 -0.9991
vn -0.0003 0.8682 0.4963
vn 0.0010 0.8688 0.4952
vn -0.0003 0.9672 0.2538
vn 0.0015 0.9685 0.2490
vn 0.0001 0.0641 0.9979
vn 0.0009 0.0749 0.9972
vn 0.0009 0.0754 0.9972
vn 0.0001 0.0636 0.9980
vn -0.0136 0.9991 0.0392
vn -0.0121 0.9997 0.0215
vn -0.0871 0.9911 0.1008
vn 0.0061 0.9994 0.0329
vn 0.0524 0.9972 0.0541
vn -0.0000 1.0000 -0.0001
vn 0.0786 0.9916 0.1028
vn -0.0079 -0.0083 0.9999
vn 0.3044 -0.0030 0.9525
vn 0.1436 0.0284 0.9892
vn -0.0098 -0.0128 0.9999
vn -0.0023 -0.9999 0.0098
vn -0.0052 -1.0000 0.0058
vn -0.0064 -0.9999 0.0111
vn -0.0092 -0.9999 0.0071
vn -0.0038 -1.0000 0.0067
vn -0.0044 -1.0000 0.0008
vn 0.0215 -0.9997 -0.0114
vn -0.0007 -1.0000 0.0021
vn -0.0000 -1.0000 0.0016
vn -0.0011 -1.0000 -0.0010
vn 0.0083 -1.0000 0.0015
vn 0.0019 -1.0000 -0.0015
vn 0.0233 -0.9997 -0.0027
vn 0.0088 -0.9999 0.0118
vn 0.0001 -1.0000 -0.0003
vn 0.0084 -1.0000 0.0051
vn -0.0030 -1.0000 -0.0007
vn 0.0027 -1.0000 0.0030
vn -0.0024 -1.0000 -0.0014
vn -0.0046 -0.1843 0.9829
vn -0.0003 -0.1268 0.9919
vn -0.0001 -0.1232 0.9924
vn -0.0048 -0.1874 0.9823
vn -0.0028 -0.8686 -0.4956
vn -0.0028 -0.8685 -0.4956
vn -0.0056 -0.8700 -0.4931
vn -0.0002 -0.8673 -0.4979
vn -0.0009 -0.9995 0.0312
vn -0.0004 -0.9992 0.0389
vn -0.0009 -0.9995 0.0316
vn -0.0003 -0.9992 0.0398
vn 0.9928 -0.1193 0.0113
vn -0.7119 -0.6847 -0.1564
vn -0.7409 -0.6716 0.0072
vn -0.9565 -0.2916 0.0097
vn -0.0003 1.0000 0.0045
vn 0.0021 1.0000 0.0007
vn -0.0174 0.0322 -0.9993
vn -0.0019 0.0081 -1.0000
vn -0.0099 0.0205 -0.9997
vn 0.0034 -0.0003 -1.0000
vn 0.9999 -0.0023 -0.0100
vn 0.9999 -0.0042 -0.0124
vn 0.9995 0.0082 0.0292
vn 0.9989 0.0093 0.0462
vn 0.9993 -0.0046 -0.0358
vn 0.9988 0.0027 -0.0492
vn -0.9999 -0.0029 -0.0101
vn -1.0000 -0.0008 -0.0081
vn -0.9995 0.0090 0.0294
vn -0.9989 0.0108 0.0454
vn -0.9990 0.0042 -0.0441
vn -0.9994 -0.0030 -0.0341
vn -0.9963 -0.0015 0.0864
vn -0.9963 -0.0050 0.0859
vn 0.1564 -0.0012 -0.9877
vn -0.8820 -0.0069 -0.4712
vn -0.9999 -0.0081 0.0098
vn -0.9888 -0.0303 0.1462
vn -0.9766 -0.0020 0.2150
vn -1.0000 -0.0014 0.0077
vn 0.9831 0.0236 0.1814
vn 0.9510 -0.0055 -0.3091
vn 0.9674 -0.0040 -0.2531
vn 0.9695 -0.0355 0.2426
vn 0.9980 -0.0247 -0.0578
vn 0.9862 -0.0360 -0.1616
vn 0.9969 -0.0087 0.0782
vn 0.0010 -0.7189 -0.6951
vn -0.0008 -0.7110 -0.7032
vn -0.0010 -0.7100 -0.7042
vn 0.0012 -0.7199 -0.6941
vn -0.0044 0.7095 -0.7047
vn -0.0003 0.7034 -0.7108
vn -0.0028 0.7075 -0.7068
vn -0.0005 0.6960 -0.7180
vn 0.0050 0.7036 -0.7106
vn 0.0079 0.7066 -0.7076
vn -0.5063 0.0155 0.8622
vn -0.5236 0.0039 0.8520
vn -0.7292 0.0157 0.6842
vn -0.5977 -0.0009 0.8017
vn -0.8697 -0.0181 0.4932
vn 0.8275 0.0211 0.5611
vn 0.7554 -0.0326 0.6544
vn 0.5006 0.0208 0.8655
vn 0.6456 0.0360 0.7628
vn 0.7021 -0.6390 -0.3141
vn 0.7102 -0.6857 -0.1593
vn 0.7102 -0.6876 -0.1514
vn 0.7092 -0.7050 0.0020
vn 0.4015 -0.6691 0.6254
vn 0.1877 -0.7017 0.6873
vn 0.2180 -0.6991 0.6810
vn 0.0075 -0.7020 0.7121
vn -0.4307 -0.8567 0.2837
vn 0.6987 -0.7154 0.0071
vn -0.6999 -0.7143 0.0007
vn 0.9143 0.0034 -0.4050
vn -0.6695 -0.0104 0.7427
vn -0.7016 -0.6401 -0.3130
vn -0.7085 -0.6891 -0.1525
vn 0.7415 0.5508 0.3831
vn 0.6438 0.0260 0.7647
vn 0.6679 0.0131 0.7442
vn 0.6731 0.0103 0.7395
vn 0.6374 0.0293 0.7700
vn -0.8727 0.0047 -0.4883
vn 0.6990 0.7152 0.0040
vn 0.5792 0.8152 0.0082
vn 0.5808 0.8140 0.0081
vn 0.7010 0.7131 0.0039
vn 0.8712 0.3798 0.3110
vn 0.3409 0.8940 0.2908
vn -0.6837 0.7139 0.1517
vn -0.6368 0.7212 0.2727
vn -0.6923 0.7108 0.1243
vn -0.7100 0.7042 0.0047
vn -0.7104 0.7038 0.0047
vn -0.7358 0.5554 0.3873
vn -0.6731 0.0122 0.7394
vn -0.6626 0.0179 0.7487
vn -0.6753 0.0109 0.7374
vn -0.6597 0.0194 0.7513
vn -0.6557 -0.7089 0.2599
vn -0.4189 -0.7097 0.5664
vn 0.6338 -0.7102 0.3063
vn 0.3907 -0.7130 0.5822
vn -0.0228 -0.7188 0.6949
vn 0.0021 -0.9315 0.3638
vn 0.8815 -0.0795 0.4655
vn 0.7806 -0.0415 0.6237
vn 0.8762 -0.0874 0.4740
vn 0.6192 -0.0473 0.7838
vn -0.2244 -0.0223 -0.9742
vn -0.1424 0.0164 -0.9897
vn 0.2720 -0.0200 -0.9621
vn 0.4028 0.0175 -0.9151
vn 0.4293 -0.0028 0.9032
vn 0.7789 -0.0346 -0.6262
vn 0.3006 -0.0256 0.9534
vn 0.3075 -0.0193 0.9513
vn 0.7999 0.0255 -0.5996
vn 0.9754 -0.1655 -0.1456
vn 0.9733 -0.0514 -0.2235
vn 0.9975 -0.0297 -0.0634
vn 0.2507 -0.6045 -0.7561
vn 0.3848 -0.7282 -0.5672
vn 0.6534 -0.4914 -0.5759
vn 0.6791 -0.4461 -0.5829
vn -0.4739 -0.8705 -0.1331
vn 0.5195 -0.8198 -0.2411
vn -0.7518 -0.4168 -0.5110
vn -0.4483 -0.6978 -0.5587
vn -0.3803 -0.7100 -0.5926
vn -0.7730 -0.3740 -0.5124
vn 0.9405 -0.3393 -0.0190
vn -0.1727 -0.6945 -0.6985
vn -0.0262 -0.7356 -0.6769
vn 0.0288 0.9996 -0.0064
vn -0.0000 1.0000 -0.0000
vn -0.0000 1.0000 0.0001
vn 0.0001 1.0000 -0.0001
vn 0.0051 1.0000 0.0059
vn -0.0014 1.0000 -0.0000
vn -0.0419 0.9985 0.0359
vn -0.0105 0.9997 0.0241
vn -0.0079 0.9997 0.0219
vn 0.0427 0.9991 -0.0031
vn -0.5404 -0.4547 0.7080
vn -0.5419 -0.7657 0.3464
vn -0.5129 -0.7288 0.4537
vn -0.5432 -0.4369 0.7170
vn -0.5466 -0.8079 0.2202
vn -0.9770 -0.0903 0.1932
vn 0.5603 -0.4717 0.6808
vn 0.1733 -0.8155 0.5522
vn 0.0399 -0.3243 0.9451
vn -0.1253 -0.8410 0.5264
vn -0.9580 -0.0366 -0.2843
vn -0.8908 -0.0068 -0.4543
vn -0.7815 -0.0281 -0.6233
vn -0.5706 0.0126 -0.8211
vn -0.2739 -0.0221 0.9615
vn -0.4371 0.0167 0.8993
vn -0.6312 -0.0380 0.7747
vn -0.2227 0.0134 0.9748
vn -0.8217 0.0067 0.5699
vn -0.9003 -0.0309 0.4343
vn -0.9278 0.0205 0.3726
vn -0.9548 -0.0232 -0.2962
vn -0.0000 -1.0000 -0.0000
vn 0.9925 -0.0823 0.0906
vn 0.8914 -0.0099 0.4531
vn 0.6130 -0.0433 0.7889
vn -0.2177 -0.0305 -0.9755
vn -0.2440 -0.1845 -0.9521
vn 0.4827 0.0091 0.8757
vn 0.7770 -0.0371 -0.6284
vn 0.8006 0.0254 -0.5986
vn 0.9883 -0.0109 -0.1522
vn 0.3697 -0.8152 -0.4458
vn 0.4739 -0.7979 -0.3724
vn 0.5253 -0.7836 -0.3316
vn -0.9627 -0.2667 -0.0459
vn -0.5337 -0.8323 -0.1499
vn 0.6229 -0.7434 -0.2436
vn -0.6888 -0.4257 -0.5868
vn -0.5898 -0.0442 -0.8063
vn -0.8301 -0.2071 -0.5178
vn -0.3594 -0.4066 -0.8399
vn 0.0711 -0.8589 -0.5072
vn 0.4362 0.0549 -0.8982
vn -0.0002 1.0000 -0.0002
vn -0.0192 0.9994 -0.0277
vn -0.0170 0.9996 -0.0246
vn -0.2047 0.9339 -0.2931
vn 0.1112 0.9936 0.0202
vn 0.0368 0.9993 0.0033
vn 0.0205 0.9998 0.0045
vn 0.2616 0.9651 0.0088
vn -0.1579 -0.7792 0.6066
vn -0.3735 -0.7728 0.5131
vn -0.3153 -0.6379 0.7026
vn -0.3800 -0.8112 0.4445
vn -0.7461 -0.4199 0.5168
vn -0.5040 -0.8395 0.2029
vn 0.5501 -0.6630 0.5077
vn 0.2947 -0.7838 0.5467
vn 0.4266 -0.7309 0.5326
vn 0.1721 -0.8174 0.5498
vn 0.1149 -0.4208 0.8998
vn -0.1377 -0.8015 0.5819
vn -0.9582 -0.0368 -0.2837
vn -0.7859 -0.0426 -0.6168
s 1
usemtl Part__Feature001_006
f 137//365 258//366 136//367
f 138//368 258//366 137//365
f 138//368 134//369 258//366
f 134//369 139//370 258//366
f 135//371 258//366 139//370
f 140//372 141//373 142//374
f 140//372 188//375 141//373
f 143//376 208//377 152//378
f 143//376 144//379 208//377
f 145//380 146//381 147//382
f 148//383 149//384 146//381
f 151//385 154//386 150//387
f 150//387 154//386 179//388
f 179//388 154//386 152//389
f 151//385 153//390 154//386
f 152//389 140//391 149//384
f 179//388 152//389 149//384
f 149//384 155//392 146//381
f 140//391 155//392 149//384
f 140//391 156//393 155//392
f 155//392 157//394 146//381
f 146//381 157//394 147//382
f 155//392 158//395 157//394
f 206//396 160//397 161//398
f 206//396 207//399 160//397
f 160//397 207//399 162//400
f 207//399 148//401 162//400
f 159//402 163//403 165//404
f 165//404 163//403 164//405
f 160//397 162//400 165//404
f 162//400 159//402 165//404
f 166//406 167//407 168//408
f 164//409 169//410 167//407
f 163//411 169//410 164//409
f 145//412 147//413 169//410
f 147//413 168//408 167//407
f 147//413 167//407 169//410
f 170//414 171//415 172//416
f 171//415 173//417 174//418
f 175//419 173//417 171//415
f 157//420 158//421 175//419
f 170//414 157//420 171//415
f 171//415 157//420 175//419
f 176//422 174//423 173//424
f 176//422 177//425 174//423
f 147//426 170//427 168//428
f 147//426 157//429 170//427
f 185//430 150//431 178//432
f 150//431 179//433 178//432
f 153//434 151//435 187//436
f 187//436 151//435 180//437
f 181//438 188//439 182//440
f 170//441 182//440 183//442
f 170//441 183//442 168//443
f 183//442 166//444 168//443
f 172//445 182//440 170//441
f 184//446 161//447 183//442
f 189//448 178//449 186//450
f 189//448 185//451 178//449
f 189//448 180//452 185//451
f 187//453 180//452 189//448
f 186//450 178//449 184//446
f 188//439 186//450 184//446
f 182//440 184//446 183//442
f 182//440 188//439 184//446
f 172//454 190//455 182//456
f 191//457 190//455 172//454
f 171//458 191//457 172//454
f 192//459 193//460 191//461
f 191//461 194//462 190//463
f 193//460 194//462 191//461
f 174//464 192//459 171//465
f 171//465 192//459 191//461
f 194//466 182//467 190//468
f 194//466 181//469 182//467
f 195//470 167//471 166//472
f 196//473 166//472 183//474
f 196//473 195//470 166//472
f 196//475 160//476 195//477
f 160//476 197//478 195//477
f 161//479 196//480 183//481
f 161//479 160//482 196//480
f 197//483 164//484 195//485
f 195//485 164//484 167//486
f 158//487 155//488 199//489
f 158//487 198//490 175//491
f 158//487 199//489 198//490
f 199//492 200//493 198//494
f 200//493 201//495 198//494
f 201//495 202//496 198//494
f 156//497 200//498 199//499
f 156//497 199//499 155//500
f 202//496 173//501 175//502
f 202//496 175//502 198//494
f 145//503 169//504 203//505
f 205//506 203//505 204//507
f 205//506 145//503 203//505
f 146//508 145//503 205//506
f 203//509 159//510 204//511
f 159//510 162//512 204//511
f 204//511 162//512 205//513
f 163//514 159//510 203//509
f 163//514 203//509 169//515
f 205//516 148//517 146//518
f 162//519 148//517 205//516
f 178//520 179//521 206//522
f 179//521 207//523 206//522
f 140//524 152//525 188//526
f 188//526 152//525 208//527
f 209//528 210//529 153//530
f 187//531 209//528 153//530
f 180//532 151//533 150//534
f 185//535 180//532 150//534
f 200//536 156//536 211//536
f 200//537 211//537 201//537
f 211//538 176//538 201//538
f 201//539 176//540 202//541
f 173//542 202//541 176//540
f 142//543 156//393 140//391
f 210//544 143//376 154//545
f 143//376 152//378 154//545
f 153//546 210//546 154//546
f 174//547 177//548 192//549
f 192//549 177//548 193//550
f 177//551 212//551 193//551
f 193//552 212//553 194//554
f 212//553 181//555 194//554
f 179//388 149//384 207//556
f 188//439 181//438 141//557
f 148//558 207//558 149//558
f 208//559 186//559 188//559
f 144//560 186//561 208//562
f 189//563 144//560 209//564
f 189//563 186//561 144//560
f 209//565 187//565 189//565
f 206//566 184//446 178//449
f 161//567 184//567 206//567
f 165//568 164//568 197//568
f 160//569 165//569 197//569
f 211//570 213//571 176//572
f 211//570 156//573 213//571
f 216//574 217//575 214//576
f 217//575 215//577 214//576
f 216//578 219//579 217//580
f 218//581 219//579 216//578
f 220//582 225//583 221//584
f 223//585 225//583 220//582
f 224//586 225//583 223//585
f 219//587 218//587 224//586
f 224//586 218//587 225//583
f 224//586 223//585 222//588
f 220//589 255//590 223//591
f 228//592 255//590 220//589
f 227//593 139//594 226//595
f 226//595 139//594 228//596
f 139//594 134//597 228//596
f 227//593 135//598 139//594
f 228//596 134//597 231//599
f 227//593 229//600 135//598
f 229//600 230//601 135//598
f 134//597 138//602 231//599
f 138//602 137//603 231//599
f 229//600 256//604 230//601
f 231//599 137//603 232//605
f 137//603 233//606 232//605
f 229//600 259//607 256//604
f 136//608 233//606 137//603
f 257//609 234//610 136//608
f 260//611 234//610 257//609
f 136//608 234//610 233//606
f 259//607 234//610 260//611
f 229//600 234//610 259//607
f 229//612 236//613 234//614
f 235//615 236//613 229//612
f 237//616 238//617 235//618
f 239//619 238//617 237//616
f 210//620 209//621 237//622
f 209//621 239//623 237//622
f 144//624 239//624 209//624
f 237//625 143//626 210//627
f 214//576 215//577 240//628
f 215//577 241//629 240//628
f 181//630 212//631 242//632
f 242//632 212//631 177//633
f 144//634 241//635 215//636
f 144//634 215//636 251//637
f 141//638 242//639 241//635
f 141//638 241//635 144//634
f 240//640 143//641 214//642
f 214//642 143//641 243//643
f 213//644 142//645 240//640
f 240//640 142//645 143//641
f 243//643 244//646 214//642
f 243//643 235//647 244//646
f 246//648 235//648 245//648
f 246//649 244//649 235//649
f 245//650 227//651 253//652
f 245//650 253//652 246//653
f 247//654 248//655 250//656
f 233//657 248//655 247//654
f 238//658 248//655 236//659
f 249//660 250//656 238//658
f 238//658 250//656 248//655
f 249//660 251//637 215//636
f 238//658 251//637 249//660
f 141//661 143//662 142//663
f 144//664 143//662 141//661
f 242//665 177//666 241//667
f 176//668 240//669 177//666
f 177//666 240//669 241//667
f 176//668 213//670 240//669
f 228//671 220//672 221//673
f 226//674 228//671 221//673
f 252//675 226//674 221//673
f 252//675 221//673 253//652
f 227//651 252//675 253//652
f 233//657 247//654 254//676
f 232//677 233//657 254//676
f 232//677 254//676 222//678
f 255//590 232//677 222//678
f 255//590 222//678 223//591
f 234//679 236//679 248//679
f 238//680 239//681 251//682
f 233//683 234//683 248//683
f 232//684 255//685 231//686
f 255//685 228//687 231//686
f 252//688 227//688 226//688
f 239//681 144//689 251//682
f 229//690 227//690 245//690
f 141//638 181//691 242//639
f 235//692 229//692 245//692
f 237//625 235//693 243//694
f 215//695 217//695 249//695
f 243//694 143//626 237//625
f 249//696 219//697 250//698
f 217//699 219//697 249//696
f 142//645 213//644 156//700
f 219//701 224//702 247//703
f 219//701 247//703 250//704
f 254//676 247//654 224//705
f 254//706 224//586 222//588
f 253//707 221//708 225//709
f 225//709 218//710 246//711
f 225//709 246//711 253//707
f 216//712 214//712 244//712
f 218//713 244//714 246//715
f 218//713 216//716 244//714
f 136//367 258//366 257//717
f 260//718 257//717 258//366
f 230//719 258//366 135//371
f 230//719 256//720 258//366
f 256//720 259//721 258//366
f 259//721 260//718 258//366
f 236//722 235//722 238//722
f 261//723 262//724 272//725
f 272//725 262//724 263//726
f 289//727 280//728 264//729
f 280//728 265//730 264//729
f 262//724 266//731 263//726
f 264//729 265//730 267//732
f 263//726 268//733 269//734
f 266//731 268//733 263//726
f 265//730 270//735 267//732
f 270//735 271//736 267//732
f 267//732 271//736 272//737
f 271//736 261//738 272//737
f 265//739 273//740 270//741
f 273//740 276//742 270//741
f 274//743 275//743 277//743
f 270//744 276//744 271//744
f 277//745 278//746 279//747
f 275//748 278//746 277//745
f 276//749 261//738 271//736
f 279//747 278//746 280//750
f 278//746 281//751 280//750
f 280//750 281//751 265//739
f 281//751 273//740 265//739
f 283//752 278//753 284//754
f 284//754 278//753 282//755
f 281//756 278//753 283//752
f 282//755 278//753 275//757
f 276//758 273//759 261//760
f 273//759 281//756 261//760
f 261//760 281//756 262//761
f 262//761 281//756 283//752
f 285//762 282//763 286//764
f 284//765 282//763 285//762
f 286//764 282//763 274//766
f 282//767 275//767 274//767
f 262//768 283//768 266//768
f 266//769 283//769 268//769
f 283//770 284//770 268//770
f 268//771 284//771 285//771
f 274//772 277//773 287//774
f 277//773 279//775 287//774
f 269//776 285//777 288//778
f 268//779 285//777 269//776
f 287//774 279//775 289//727
f 279//775 280//728 289//727
f 285//777 286//780 288//778
f 288//778 286//780 290//781
f 286//780 274//782 290//781
f 290//783 274//772 287//774
f 287//784 289//784 264//784
f 287//784 264//784 267//784
f 287//784 267//784 272//784
f 288//784 287//784 272//784
f 288//784 272//784 263//784
f 288//784 290//784 287//784
f 288//784 263//784 269//784
f 301//785 291//786 292//787
f 317//788 308//789 293//729
f 308//789 294//730 293//729
f 291//786 295//790 292//787
f 293//729 294//730 296//791
f 292//787 297//733 298//734
f 295//790 297//733 292//787
f 294//730 299//792 296//791
f 299//792 300//793 296//791
f 296//791 300//793 301//785
f 300//793 291//786 301//785
f 294//794 302//795 299//796
f 304//797 305//797 303//797
f 303//798 305//798 306//798
f 299//796 302//795 300//799
f 305//800 307//801 306//802
f 307//801 309//803 308//789
f 308//804 309//804 294//804
f 309//805 302//805 294//805
f 311//806 305//807 304//753
f 309//808 305//807 311//806
f 309//808 307//809 305//807
f 291//810 302//811 312//812
f 312//812 302//811 310//755
f 310//755 309//808 311//806
f 302//811 309//808 310//755
f 300//813 302//811 291//810
f 310//814 311//815 313//816
f 313//816 311//815 314//817
f 311//818 304//818 314//818
f 314//819 304//819 303//819
f 291//820 312//821 295//822
f 295//822 312//821 297//823
f 312//824 310//824 297//824
f 297//825 310//814 313//816
f 303//826 306//802 315//827
f 306//802 307//801 315//827
f 298//776 313//777 316//778
f 297//779 313//777 298//776
f 315//827 307//801 317//788
f 307//801 308//789 317//788
f 313//777 314//780 316//778
f 316//778 314//780 318//781
f 314//780 303//782 318//781
f 318//783 303//826 315//827
f 292//784 296//784 301//784
f 316//784 317//784 293//784
f 316//784 315//784 317//784
f 316//784 318//784 315//784
f 316//784 293//784 298//784
f 298//784 293//784 296//784
f 298//784 296//784 292//784
